<svg version="1.1" id="Layer_1" xmlns="http://www.w3.org/2000/svg" xmlns:xlink="http://www.w3.org/1999/xlink" x="0px" y="0px"
	 width="100%" viewBox="0 0 1024 672" enable-background="new 0 0 1024 672" xml:space="preserve">
<path fill="#000000" opacity="1.000000" stroke="none" 
	d="
M462.273071,454.703308 
	C481.054047,465.874481 501.212738,470.861145 522.511902,471.924255 
	C525.368652,472.066833 529.382446,470.883026 530.603821,474.231995 
	C532.064514,478.237152 531.583557,482.778046 530.748169,487.041351 
	C530.455811,488.532959 528.861328,488.812439 527.474182,488.760406 
	C477.169067,486.872711 436.090179,467.974976 408.788055,424.011261 
	C401.175964,411.753693 396.183960,398.345551 392.667206,384.356445 
	C391.727295,380.617767 392.320343,377.691803 394.773834,374.674683 
	C404.123566,363.177277 413.273254,351.517334 422.519257,339.935364 
	C425.445862,336.269379 436.090576,334.216125 439.903870,336.520355 
	C441.972290,337.770203 441.872437,339.894836 441.920837,341.850067 
	C442.477722,364.337646 451.870483,383.066498 466.929626,399.094330 
	C494.504578,428.443085 541.386902,434.381653 576.112915,412.632782 
	C603.998779,395.167908 618.788208,369.730499 618.955505,336.570068 
	C619.182495,291.583435 618.984680,246.594696 619.043030,201.606934 
	C619.046265,199.089417 617.801453,195.406952 620.808838,194.402313 
	C624.829285,193.059280 629.445679,192.904633 633.498108,194.511292 
	C636.007935,195.506363 635.172180,198.607773 635.174316,200.860413 
	C635.208496,236.517426 635.315674,272.175110 635.137146,307.831238 
	C635.064697,322.307281 636.306335,336.838440 634.294922,351.257721 
	C630.117493,381.204926 615.472290,404.865356 591.058838,422.621521 
	C570.950623,437.246429 548.189636,443.777222 523.766479,441.906555 
	C486.431824,439.046844 457.562836,421.457764 438.666260,388.536713 
	C433.757782,379.985291 430.273987,370.888702 428.000946,361.329895 
	C425.397491,361.343445 424.774353,363.330200 423.697571,364.645233 
	C420.744385,368.251678 418.232086,372.285309 414.933258,375.527100 
	C409.949524,380.424713 409.608826,385.473724 411.884827,391.823608 
	C421.442352,418.488159 437.456665,439.857422 462.273071,454.703308 
z"/>
<path fill="#000000" opacity="1.000000" stroke="none" 
	d="
M589.289062,288.000061 
	C589.251221,304.999023 589.390503,321.500763 589.134277,337.996368 
	C588.707764,365.461304 568.561829,389.350067 541.597717,394.717133 
	C509.128632,401.179993 477.088715,379.010193 472.101654,346.478302 
	C471.621887,343.348663 470.042419,339.208557 473.142029,337.092468 
	C476.643372,334.702118 481.242310,335.717377 485.290558,336.429596 
	C488.161621,336.934662 487.869049,339.833252 488.215668,342.137543 
	C490.700256,358.653595 499.540344,370.302368 515.100952,376.567139 
	C520.753784,378.842957 521.712402,378.087646 524.154480,372.596375 
	C528.026733,363.889221 527.552368,354.627441 527.556274,345.546814 
	C527.571533,310.221558 527.302124,274.895050 526.890564,239.571899 
	C526.828796,234.271347 528.325134,230.400192 532.329163,226.938370 
	C542.660583,218.006012 552.956543,209.011139 562.851379,199.604416 
	C567.724060,194.972076 572.892700,193.360687 579.473755,193.676010 
	C589.335632,194.148514 589.313904,193.805511 589.305664,203.503815 
	C589.281860,231.502533 589.291748,259.501282 589.289062,288.000061 
M543.254456,363.306458 
	C543.497620,368.111389 540.904907,372.516602 540.864075,377.145844 
	C542.455811,377.901672 543.524475,377.443329 544.625244,377.026001 
	C561.540466,370.613068 572.733154,354.809418 572.797485,336.559448 
	C572.935425,297.423370 572.888733,258.286591 572.869873,219.150131 
	C572.869080,217.594940 573.432617,215.844910 571.611328,213.900558 
	C562.689575,221.924072 553.816528,229.895813 544.956604,237.882019 
	C543.900146,238.834351 543.577026,240.041595 543.674133,241.487579 
	C544.534668,254.305344 543.321899,267.109070 543.363953,279.925690 
	C543.454163,307.400543 543.331055,334.876099 543.254456,363.306458 
z"/>
</svg>